# xmcd
#
# Track frame offsets: 
#        150
#        21647
#        35825
#        62851
#        81729
#        99452
#        118828
#        133963
#        148544
#        160555
#
# Disc length: 2281 seconds
#
# Revision: 1
# Processed by: cddbd v1.5.2PL0 Copyright (c) Steve Scherf et al.
# Submitted via: ExactAudioCopyFreeDBPlugin 1.0
#
DISCID=9808e70a
DTITLE=Cluster - 1971 - 1981 [CD3: Zuckerzeit)
DYEAR=2016
DGENRE=Krautrock
TTITLE0=Hollywood
TTITLE1=Caramel
TTITLE2=Rote Riki
TTITLE3=Rosa
TTITLE4=Caramba
TTITLE5=Fotschi Tong
TTITLE6=James
TTITLE7=Marzipan
TTITLE8=Rotor
TTITLE9=Heiﬂe Lippen
EXTD=
EXTT0=
EXTT1=
EXTT2=
EXTT3=
EXTT4=
EXTT5=
EXTT6=
EXTT7=
EXTT8=
EXTT9=
PLAYORDER=
